<svg xmlns="http://www.w3.org/2000/svg" viewBox="0 0 512 512" width="64" height="64">
  <path fill="#4AC5FF" d="M364.93 55.87C307.96 22.45 231.2 0 163.62 0 73.32 0 0 64.3 0 128c0 15.68 7.64 31.76 21.15 50.44 5.54 7.49 12.39 15.13 20.32 22.98l123.7 126.23c4.5 4.57 12.17 4.57 16.67 0l123.7-126.23c7.94-7.85 14.78-15.49 20.32-22.98 13.52-18.68 21.15-34.76 21.15-50.44-.01-17.37-6.65-33.79-18.77-48.13zM256 147.89c-35.35 0-64 28.65-64 64s28.65 64 64 64 64-28.65 64-64-28.65-64-64-64z"/>
  <path fill="#2C93BF" d="M256 348.02c-93.69 0-163.62 61.56-163.62 139.98 0 33.19 20.59 65.73 48.84 95.58C131.43 585.52 192.11 640 256 640s124.57-54.48 115.78-56.42c28.25-29.85 48.84-62.39 48.84-95.58 0-78.42-69.93-139.98-163.62-139.98zm0 191.42c-11.32 0-22.3-2.11-32.5-5.98-32.28-13.94-73.84-36.25-94.98-83.22-7.26-15.38-11.5-31.86-12.07-48.22h239.1c-.56 16.36-4.8 32.84-12.07 48.22-21.14 46.98-62.7 69.29-94.98 83.22-10.2 3.86-21.18 5.98-32.5 5.98zm120.23-119.94c-6.16-15.04-16.49-27.97-29.61-37.76-2.68-2.06-5.52-3.88-8.52-5.5-10.02-5.35-22.09-8.22-34.1-8.22-34.58 0-62.73 28.15-62.73 62.73s28.15 62.73 62.73 62.73c12.01 0 24.08-2.87 34.1-8.22 3-1.62 5.84-3.44 8.52-5.5 13.13-9.79 23.46-22.72 29.61-37.76 5.41-13.21 14.59-23.95 26.15-31.39z"/>
</svg>
